<?xml version="1.0" encoding="utf-8"?>
<svg version="1.1" id="Layer_1" xmlns="http://www.w3.org/2000/svg" xmlns:xlink="http://www.w3.org/1999/xlink" x="0px" y="0px"
	 viewBox="0 0 641.4 136.5" style="enable-background:new 0 0 641.4 136.5;" xml:space="preserve">
<style type="text/css">
	.st0{fill:#FE763A;}
	.st1{fill:#FFFFFF;}
</style>
<path class="st0" d="M108.4,136.5H28.1C12.6,136.5,0,123.9,0,108.4V28.1C0,12.6,12.6,0,28.1,0h80.3c15.5,0,28.1,12.6,28.1,28.1v80.3
	C136.5,123.9,123.9,136.5,108.4,136.5z"/>
<g>
	<path class="st0" d="M167.4,98.8V38.4h21.7c7.8,0,13.7,1.4,17.7,4.3c4.1,2.9,6.1,7,6.1,12.4c0,3.1-0.7,5.8-2.2,8
		c-1.4,2.2-3.6,3.8-6.4,4.9c3.2,0.8,5.6,2.4,7.3,4.6c1.7,2.3,2.5,5,2.5,8.3c0,5.9-1.9,10.4-5.6,13.3c-3.7,3-9.3,4.5-16.7,4.5H167.4z
		 M182,63.6h7.6c3.2,0,5.5-0.6,6.8-1.7c1.4-1.1,2-2.8,2-5c0-2.6-0.7-4.4-2.2-5.5c-1.5-1.1-3.8-1.7-7.1-1.7H182V63.6z M182,73.1v14.5
		h9.5c2.6,0,4.6-0.6,6.1-1.8c1.4-1.2,2.1-2.9,2.1-5.1c0-5-2.5-7.6-7.5-7.6H182z"/>
	<path class="st0" d="M246.9,98.8c-0.5-0.9-0.9-2.3-1.3-4c-2.6,3.2-6.2,4.9-10.8,4.9c-4.2,0-7.8-1.3-10.8-3.8
		c-3-2.6-4.4-5.8-4.4-9.6c0-4.9,1.8-8.5,5.4-11c3.6-2.5,8.8-3.7,15.7-3.7h4.3V69c0-4.1-1.8-6.2-5.4-6.2c-3.3,0-5,1.6-5,4.9h-14
		c0-4.3,1.8-7.9,5.5-10.6c3.7-2.7,8.4-4.1,14.1-4.1s10.3,1.4,13.6,4.2c3.3,2.8,5,6.6,5.1,11.5v19.9c0.1,4.1,0.7,7.3,1.9,9.5v0.7
		H246.9z M238.1,89.7c1.7,0,3.2-0.4,4.3-1.1c1.1-0.7,2-1.6,2.5-2.5v-7.2h-4.1c-4.9,0-7.3,2.2-7.3,6.6c0,1.3,0.4,2.3,1.3,3.1
		C235.7,89.3,236.8,89.7,238.1,89.7z"/>
	<path class="st0" d="M290.2,86.2c0-1.2-0.6-2.1-1.9-2.9s-3.6-1.5-7.1-2.2s-6.4-1.8-8.6-3.1c-2.3-1.3-4-2.8-5.2-4.6
		c-1.2-1.8-1.8-3.9-1.8-6.2c0-4.1,1.7-7.5,5.1-10.2c3.4-2.7,7.9-4,13.4-4c5.9,0,10.7,1.3,14.3,4c3.6,2.7,5.4,6.2,5.4,10.6h-14
		c0-3.6-1.9-5.4-5.7-5.4c-1.5,0-2.7,0.4-3.7,1.2c-1,0.8-1.5,1.8-1.5,3.1c0,1.2,0.6,2.3,1.8,3c1.2,0.8,3.2,1.4,5.8,1.9
		c2.7,0.5,5,1.1,7,1.8c6.8,2.3,10.1,6.5,10.1,12.5c0,4.1-1.8,7.4-5.5,10c-3.6,2.6-8.3,3.9-14.1,3.9c-3.8,0-7.3-0.7-10.3-2.1
		c-3-1.4-5.4-3.3-7.1-5.6c-1.7-2.4-2.5-4.9-2.5-7.5h13.1c0.1,2.1,0.7,3.6,2.1,4.5c1.3,1,3,1.4,5.1,1.4c1.9,0,3.3-0.4,4.3-1.2
		C289.8,88.5,290.2,87.4,290.2,86.2z"/>
	<path class="st0" d="M310.2,42.3c0-2,0.7-3.6,2.2-4.9c1.4-1.3,3.3-1.9,5.6-1.9c2.3,0,4.2,0.6,5.6,1.9c1.4,1.3,2.2,2.9,2.2,4.9
		s-0.7,3.6-2.2,4.9c-1.4,1.3-3.3,1.9-5.6,1.9c-2.3,0-4.2-0.6-5.6-1.9C310.9,46,310.2,44.3,310.2,42.3z M325,98.8h-14V53.9h14V98.8z"
		/>
	<path class="st0" d="M352.6,88.9c2,0,3.5-0.5,4.6-1.6c1.1-1.1,1.6-2.6,1.6-4.5h13.1c0,4.9-1.8,9-5.3,12.1
		c-3.5,3.2-8.1,4.7-13.6,4.7c-6.5,0-11.7-2-15.4-6.1c-3.8-4.1-5.6-9.8-5.6-17v-0.6c0-4.5,0.8-8.5,2.5-12c1.7-3.5,4.1-6.1,7.2-8
		c3.2-1.9,6.9-2.8,11.2-2.8c5.8,0,10.5,1.6,13.9,4.9c3.4,3.2,5.1,7.6,5.1,13.2h-13.1c0-2.3-0.6-4.1-1.7-5.4
		c-1.1-1.2-2.7-1.9-4.6-1.9c-3.6,0-5.7,2.3-6.4,6.9c-0.2,1.5-0.3,3.5-0.3,6.1c0,4.5,0.5,7.6,1.6,9.4S350.3,88.9,352.6,88.9z"/>
	<path class="st0" d="M433.9,87.5h-20l-3.5,11.3h-15.6l22.2-60.4h13.7l22.3,60.4h-15.6L433.9,87.5z M417.4,76.3h13l-6.5-21
		L417.4,76.3z"/>
	<path class="st0" d="M455.1,76c0-7.1,1.5-12.7,4.6-16.8c3.1-4.1,7.4-6.1,12.9-6.1c4,0,7.4,1.6,10.1,4.7V35.1h14v63.8h-12.6
		l-0.7-4.8c-2.9,3.8-6.5,5.6-11,5.6c-5.3,0-9.6-2-12.7-6.1C456.7,89.4,455.1,83.6,455.1,76z M469.1,76.9c0,8,2.3,12,7,12
		c3.1,0,5.3-1.3,6.6-3.9V67.9c-1.3-2.7-3.5-4-6.6-4c-4.3,0-6.7,3.5-7,10.5L469.1,76.9z"/>
	<path class="st0" d="M517.9,53.9l0.5,5.3c3.2-4.1,7.5-6.1,12.8-6.1c5.7,0,9.5,2.3,11.5,6.8c3-4.5,7.4-6.8,13.2-6.8
		c9.1,0,13.8,5.5,14,16.5v29.2h-14V70.5c0-2.3-0.4-4-1.2-5c-0.8-1.1-2.2-1.6-4.2-1.6c-2.8,0-4.8,1.2-6.2,3.7l0,0.6v30.7h-14V70.6
		c0-2.4-0.4-4.1-1.1-5.1c-0.7-1.1-2.2-1.6-4.3-1.6c-2.7,0-4.7,1.2-6.1,3.7v31.3h-14V53.9H517.9z"/>
	<path class="st0" d="M577.8,42.3c0-2,0.7-3.6,2.2-4.9c1.4-1.3,3.3-1.9,5.6-1.9s4.2,0.6,5.6,1.9c1.4,1.3,2.2,2.9,2.2,4.9
		s-0.7,3.6-2.2,4.9c-1.4,1.3-3.3,1.9-5.6,1.9s-4.2-0.6-5.6-1.9C578.5,46,577.8,44.3,577.8,42.3z M592.6,98.8h-14V53.9h14V98.8z"/>
	<path class="st0" d="M614.1,53.9l0.5,5.3c3.1-4.1,7.4-6.1,12.8-6.1c4.7,0,8.2,1.4,10.5,4.2c2.3,2.8,3.5,7,3.6,12.6v28.9h-14V70.5
		c0-2.3-0.5-3.9-1.4-5c-0.9-1.1-2.6-1.6-5-1.6c-2.7,0-4.8,1.1-6.1,3.2v31.7h-14V53.9H614.1z"/>
</g>
<g>
	<g>
		<g>
			<g>
				<circle class="st1" cx="32.9" cy="103.4" r="1.4"/>
			</g>
		</g>
		<g>
			<g>
				<circle class="st1" cx="69.8" cy="66.7" r="1.4"/>
			</g>
		</g>
		<g>
			<g>
				<path class="st1" d="M88.7,48.4c-1.2-1.2-2.7-1.8-4.3-1.8c-1.6,0-3.2,0.6-4.3,1.8c-2.4,2.4-2.4,6.3,0,8.7
					c1.2,1.2,2.8,1.8,4.3,1.8c1.6,0,3.1-0.6,4.3-1.8C91.1,54.7,91.1,50.8,88.7,48.4z M86.7,55.1c-1.3,1.3-3.3,1.3-4.6,0
					c-1.3-1.3-1.3-3.3,0-4.6c0.6-0.6,1.4-1,2.3-1s1.7,0.3,2.3,1C88,51.7,88,53.8,86.7,55.1z"/>
			</g>
		</g>
		<g>
			<g>
				<path class="st1" d="M49.5,90.6c-0.7-0.4-1.6-0.1-1.9,0.6l-1.7,3.5c-0.7,1.5-2.3,2.5-3.9,2.6l-2,0.1c-0.3,0-0.6-0.1-0.7-0.2
					c-0.1-0.1-0.3-0.3-0.2-0.7l0.1-2c0.1-1.7,1.1-3.2,2.6-3.9l3.5-1.7c0.7-0.4,1-1.2,0.6-1.9c-0.4-0.7-1.2-1-1.9-0.6L40.4,88
					c-2.4,1.2-4,3.6-4.2,6.3l-0.1,2c-0.1,1.1,0.3,2.1,1.1,2.9c0.7,0.7,1.7,1.1,2.6,1.1c0.1,0,0.2,0,0.3,0l2-0.1
					c2.7-0.2,5.1-1.8,6.3-4.2l1.7-3.5C50.5,91.8,50.2,91,49.5,90.6z"/>
			</g>
		</g>
		<g>
			<g>
				<path class="st1" d="M104.1,32.6c-0.7-0.7-1.6-1-2.6-1l-1.3,0.1c-12.1,0.8-23.3,6.6-30.9,16L66,51.6l-8.3-0.2c0,0,0,0,0,0
					c-6.6,0-12.7,2.6-17.4,7.2L31.9,67c-0.4,0.4-0.5,1-0.3,1.5c0.2,0.5,0.7,0.9,1.3,0.9l18,0.9L50,71.3c-0.4,0.5-0.4,1.1-0.1,1.6
					c0.3,0.5,0.6,1,0.9,1.5l-4.3,5.1c-0.4,0.4-0.4,1-0.2,1.5c0.9,2,2.2,3.7,3.7,5.2c1.5,1.6,3.3,2.8,5.4,3.8
					c0.2,0.1,0.4,0.1,0.6,0.1c0.3,0,0.6-0.1,0.9-0.3c0.9-0.7,2-1.6,3-2.5c0.7-0.6,1.5-1.2,2.2-1.8c0.4,0.3,0.8,0.5,1.3,0.7
					c0.2,0.1,0.5,0.2,0.7,0.2c0.3,0,0.6-0.1,0.9-0.3l1-0.8l0.9,18c0,0.6,0.4,1.1,0.9,1.3c0.2,0.1,0.3,0.1,0.5,0.1
					c0.4,0,0.7-0.1,1-0.4l8.5-8.5c4.6-4.6,7.2-10.8,7.2-17.4v-7.9l3.3-2.6c10-7.8,16.1-19.5,16.8-32.2l0-0.7
					C105.1,34.2,104.7,33.3,104.1,32.6z M36.2,66.8l6.2-6.2c4.1-4.1,9.5-6.3,15.3-6.4l6.1,0.2L53,67.6L36.2,66.8z M58,85.2
					c-0.8,0.6-1.5,1.3-2.2,1.9c-1.4-0.8-2.6-1.7-3.7-2.8c-1.1-1.1-2-2.3-2.7-3.6l3.1-3.7c0.9,1.3,2,2.5,3.1,3.6c0,0,0,0,0,0
					c0,0,0,0,0,0c0,0,0,0,0,0c1.2,1.2,2.6,2.4,4,3.4C59,84.4,58.5,84.8,58,85.2z M82,78.6c0,5.8-2.3,11.2-6.4,15.3l-6.2,6.2
					l-0.9-16.8L82,72.9L82,78.6L82,78.6z M102.1,35.7c-0.6,11.8-6.3,22.8-15.6,30.1L63.9,83.3c-1.9-1.1-3.6-2.4-5.2-3.9l7.6-7.6
					c0.6-0.6,0.6-1.5,0-2c-0.6-0.6-1.5-0.6-2,0l-7.6,7.6c-1.4-1.6-2.6-3.2-3.7-5l18.6-22.9c7.1-8.8,17.6-14.2,28.9-14.9l1.3-0.1
					c0.2,0,0.3,0.1,0.3,0.1c0.1,0.1,0.1,0.2,0.1,0.3L102.1,35.7z"/>
			</g>
		</g>
	</g>
	<g>
		<g>
			<g>
				<circle class="st1" cx="32.9" cy="103.4" r="1.4"/>
			</g>
		</g>
		<g>
			<g>
				<circle class="st1" cx="69.8" cy="66.7" r="1.4"/>
			</g>
		</g>
		<g>
			<g>
				<path class="st1" d="M88.7,48.4c-1.2-1.2-2.7-1.8-4.3-1.8c-1.6,0-3.2,0.6-4.3,1.8c-2.4,2.4-2.4,6.3,0,8.7
					c1.2,1.2,2.8,1.8,4.3,1.8c1.6,0,3.1-0.6,4.3-1.8C91.1,54.7,91.1,50.8,88.7,48.4z M86.7,55.1c-1.3,1.3-3.3,1.3-4.6,0
					c-1.3-1.3-1.3-3.3,0-4.6c0.6-0.6,1.4-1,2.3-1s1.7,0.3,2.3,1C88,51.7,88,53.8,86.7,55.1z"/>
			</g>
		</g>
		<g>
			<g>
				<path class="st1" d="M49.5,90.6c-0.7-0.4-1.6-0.1-1.9,0.6l-1.7,3.5c-0.7,1.5-2.3,2.5-3.9,2.6l-2,0.1c-0.3,0-0.6-0.1-0.7-0.2
					c-0.1-0.1-0.3-0.3-0.2-0.7l0.1-2c0.1-1.7,1.1-3.2,2.6-3.9l3.5-1.7c0.7-0.4,1-1.2,0.6-1.9c-0.4-0.7-1.2-1-1.9-0.6L40.4,88
					c-2.4,1.2-4,3.6-4.2,6.3l-0.1,2c-0.1,1.1,0.3,2.1,1.1,2.9c0.7,0.7,1.7,1.1,2.6,1.1c0.1,0,0.2,0,0.3,0l2-0.1
					c2.7-0.2,5.1-1.8,6.3-4.2l1.7-3.5C50.5,91.8,50.2,91,49.5,90.6z"/>
			</g>
		</g>
		<g>
			<g>
				<path class="st1" d="M104.1,32.6c-0.7-0.7-1.6-1-2.6-1l-1.3,0.1c-12.1,0.8-23.3,6.6-30.9,16L66,51.6l-8.3-0.2c0,0,0,0,0,0
					c-6.6,0-12.7,2.6-17.4,7.2L31.9,67c-0.4,0.4-0.5,1-0.3,1.5c0.2,0.5,0.7,0.9,1.3,0.9l18,0.9L50,71.3c-0.4,0.5-0.4,1.1-0.1,1.6
					c0.3,0.5,0.6,1,0.9,1.5l-4.3,5.1c-0.4,0.4-0.4,1-0.2,1.5c0.9,2,2.2,3.7,3.7,5.2c1.5,1.6,3.3,2.8,5.4,3.8
					c0.2,0.1,0.4,0.1,0.6,0.1c0.3,0,0.6-0.1,0.9-0.3c0.9-0.7,2-1.6,3-2.5c0.7-0.6,1.5-1.2,2.2-1.8c0.4,0.3,0.8,0.5,1.3,0.7
					c0.2,0.1,0.5,0.2,0.7,0.2c0.3,0,0.6-0.1,0.9-0.3l1-0.8l0.9,18c0,0.6,0.4,1.1,0.9,1.3c0.2,0.1,0.3,0.1,0.5,0.1
					c0.4,0,0.7-0.1,1-0.4l8.5-8.5c4.6-4.6,7.2-10.8,7.2-17.4v-7.9l3.3-2.6c10-7.8,16.1-19.5,16.8-32.2l0-0.7
					C105.1,34.2,104.7,33.3,104.1,32.6z M36.2,66.8l6.2-6.2c4.1-4.1,9.5-6.3,15.3-6.4l6.1,0.2L53,67.6L36.2,66.8z M58,85.2
					c-0.8,0.6-1.5,1.3-2.2,1.9c-1.4-0.8-2.6-1.7-3.7-2.8c-1.1-1.1-2-2.3-2.7-3.6l3.1-3.7c0.9,1.3,2,2.5,3.1,3.6c0,0,0,0,0,0
					c0,0,0,0,0,0c0,0,0,0,0,0c1.2,1.2,2.6,2.4,4,3.4C59,84.4,58.5,84.8,58,85.2z M82,78.6c0,5.8-2.3,11.2-6.4,15.3l-6.2,6.2
					l-0.9-16.8L82,72.9L82,78.6L82,78.6z M102.1,35.7c-0.6,11.8-6.3,22.8-15.6,30.1L63.9,83.3c-1.9-1.1-3.6-2.4-5.2-3.9l7.6-7.6
					c0.6-0.6,0.6-1.5,0-2c-0.6-0.6-1.5-0.6-2,0l-7.6,7.6c-1.4-1.6-2.6-3.2-3.7-5l18.6-22.9c7.1-8.8,17.6-14.2,28.9-14.9l1.3-0.1
					c0.2,0,0.3,0.1,0.3,0.1c0.1,0.1,0.1,0.2,0.1,0.3L102.1,35.7z"/>
			</g>
		</g>
	</g>
</g>
</svg>
