<?xml version="1.0" encoding="utf-8"?>
<svg version="1.1" id="Layer_1" xmlns="http://www.w3.org/2000/svg" xmlns:xlink="http://www.w3.org/1999/xlink" x="0px" y="0px"
	 viewBox="0 0 136.5 136.5" style="enable-background:new 0 0 136.5 136.5;" xml:space="preserve">
<style type="text/css">
	.st0{fill:#FE763A;}
	.st1{fill:#FFFFFF;}
</style>
<path class="st0" d="M108.4,136.5H28.1C12.6,136.5,0,123.9,0,108.4V28.1C0,12.6,12.6,0,28.1,0h80.3c15.5,0,28.1,12.6,28.1,28.1v80.3
	C136.5,123.9,123.9,136.5,108.4,136.5z"/>
<g>
	<g>
		<g>
			<g>
				<circle class="st1" cx="32.9" cy="103.4" r="1.4"/>
			</g>
		</g>
		<g>
			<g>
				<circle class="st1" cx="69.8" cy="66.7" r="1.4"/>
			</g>
		</g>
		<g>
			<g>
				<path class="st1" d="M88.7,48.4c-1.2-1.2-2.7-1.8-4.3-1.8c-1.6,0-3.2,0.6-4.3,1.8c-2.4,2.4-2.4,6.3,0,8.7
					c1.2,1.2,2.8,1.8,4.3,1.8c1.6,0,3.1-0.6,4.3-1.8C91.1,54.7,91.1,50.8,88.7,48.4z M86.7,55.1c-1.3,1.3-3.3,1.3-4.6,0
					c-1.3-1.3-1.3-3.3,0-4.6c0.6-0.6,1.4-1,2.3-1s1.7,0.3,2.3,1C88,51.7,88,53.8,86.7,55.1z"/>
			</g>
		</g>
		<g>
			<g>
				<path class="st1" d="M49.5,90.6c-0.7-0.4-1.6-0.1-1.9,0.6l-1.7,3.5c-0.7,1.5-2.3,2.5-3.9,2.6l-2,0.1c-0.3,0-0.6-0.1-0.7-0.2
					c-0.1-0.1-0.3-0.3-0.2-0.7l0.1-2c0.1-1.7,1.1-3.2,2.6-3.9l3.5-1.7c0.7-0.4,1-1.2,0.6-1.9c-0.4-0.7-1.2-1-1.9-0.6L40.4,88
					c-2.4,1.2-4,3.6-4.2,6.3l-0.1,2c-0.1,1.1,0.3,2.1,1.1,2.9c0.7,0.7,1.7,1.1,2.6,1.1c0.1,0,0.2,0,0.3,0l2-0.1
					c2.7-0.2,5.1-1.8,6.3-4.2l1.7-3.5C50.5,91.8,50.2,91,49.5,90.6z"/>
			</g>
		</g>
		<g>
			<g>
				<path class="st1" d="M104.1,32.6c-0.7-0.7-1.6-1-2.6-1l-1.3,0.1c-12.1,0.8-23.3,6.6-30.9,16L66,51.6l-8.3-0.2l0,0
					c-6.6,0-12.7,2.6-17.4,7.2L31.9,67c-0.4,0.4-0.5,1-0.3,1.5s0.7,0.9,1.3,0.9l18,0.9l-0.9,1c-0.4,0.5-0.4,1.1-0.1,1.6
					c0.3,0.5,0.6,1,0.9,1.5l-4.3,5.1c-0.4,0.4-0.4,1-0.2,1.5c0.9,2,2.2,3.7,3.7,5.2c1.5,1.6,3.3,2.8,5.4,3.8
					c0.2,0.1,0.4,0.1,0.6,0.1c0.3,0,0.6-0.1,0.9-0.3c0.9-0.7,2-1.6,3-2.5c0.7-0.6,1.5-1.2,2.2-1.8c0.4,0.3,0.8,0.5,1.3,0.7
					c0.2,0.1,0.5,0.2,0.7,0.2c0.3,0,0.6-0.1,0.9-0.3l1-0.8l0.9,18c0,0.6,0.4,1.1,0.9,1.3c0.2,0.1,0.3,0.1,0.5,0.1
					c0.4,0,0.7-0.1,1-0.4l8.5-8.5C82.4,91.2,85,85,85,78.4v-7.9l3.3-2.6c10-7.8,16.1-19.5,16.8-32.2V35
					C105.1,34.2,104.7,33.3,104.1,32.6z M36.2,66.8l6.2-6.2c4.1-4.1,9.5-6.3,15.3-6.4l6.1,0.2L53,67.6L36.2,66.8z M58,85.2
					c-0.8,0.6-1.5,1.3-2.2,1.9c-1.4-0.8-2.6-1.7-3.7-2.8c-1.1-1.1-2-2.3-2.7-3.6l3.1-3.7c0.9,1.3,2,2.5,3.1,3.6l0,0l0,0l0,0
					c1.2,1.2,2.6,2.4,4,3.4C59,84.4,58.5,84.8,58,85.2z M82,78.6c0,5.8-2.3,11.2-6.4,15.3l-6.2,6.2l-0.9-16.8L82,72.9V78.6L82,78.6z
					 M102.1,35.7c-0.6,11.8-6.3,22.8-15.6,30.1L63.9,83.3c-1.9-1.1-3.6-2.4-5.2-3.9l7.6-7.6c0.6-0.6,0.6-1.5,0-2
					c-0.6-0.6-1.5-0.6-2,0l-7.6,7.6c-1.4-1.6-2.6-3.2-3.7-5l18.6-22.9c7.1-8.8,17.6-14.2,28.9-14.9l1.3-0.1c0.2,0,0.3,0.1,0.3,0.1
					c0.1,0.1,0.1,0.2,0.1,0.3L102.1,35.7z"/>
			</g>
		</g>
	</g>
	<g>
		<g>
			<g>
				<circle class="st1" cx="32.9" cy="103.4" r="1.4"/>
			</g>
		</g>
		<g>
			<g>
				<circle class="st1" cx="69.8" cy="66.7" r="1.4"/>
			</g>
		</g>
		<g>
			<g>
				<path class="st1" d="M88.7,48.4c-1.2-1.2-2.7-1.8-4.3-1.8c-1.6,0-3.2,0.6-4.3,1.8c-2.4,2.4-2.4,6.3,0,8.7
					c1.2,1.2,2.8,1.8,4.3,1.8c1.6,0,3.1-0.6,4.3-1.8C91.1,54.7,91.1,50.8,88.7,48.4z M86.7,55.1c-1.3,1.3-3.3,1.3-4.6,0
					c-1.3-1.3-1.3-3.3,0-4.6c0.6-0.6,1.4-1,2.3-1s1.7,0.3,2.3,1C88,51.7,88,53.8,86.7,55.1z"/>
			</g>
		</g>
		<g>
			<g>
				<path class="st1" d="M49.5,90.6c-0.7-0.4-1.6-0.1-1.9,0.6l-1.7,3.5c-0.7,1.5-2.3,2.5-3.9,2.6l-2,0.1c-0.3,0-0.6-0.1-0.7-0.2
					c-0.1-0.1-0.3-0.3-0.2-0.7l0.1-2c0.1-1.7,1.1-3.2,2.6-3.9l3.5-1.7c0.7-0.4,1-1.2,0.6-1.9c-0.4-0.7-1.2-1-1.9-0.6L40.4,88
					c-2.4,1.2-4,3.6-4.2,6.3l-0.1,2c-0.1,1.1,0.3,2.1,1.1,2.9c0.7,0.7,1.7,1.1,2.6,1.1c0.1,0,0.2,0,0.3,0l2-0.1
					c2.7-0.2,5.1-1.8,6.3-4.2l1.7-3.5C50.5,91.8,50.2,91,49.5,90.6z"/>
			</g>
		</g>
		<g>
			<g>
				<path class="st1" d="M104.1,32.6c-0.7-0.7-1.6-1-2.6-1l-1.3,0.1c-12.1,0.8-23.3,6.6-30.9,16L66,51.6l-8.3-0.2l0,0
					c-6.6,0-12.7,2.6-17.4,7.2L31.9,67c-0.4,0.4-0.5,1-0.3,1.5s0.7,0.9,1.3,0.9l18,0.9l-0.9,1c-0.4,0.5-0.4,1.1-0.1,1.6
					c0.3,0.5,0.6,1,0.9,1.5l-4.3,5.1c-0.4,0.4-0.4,1-0.2,1.5c0.9,2,2.2,3.7,3.7,5.2c1.5,1.6,3.3,2.8,5.4,3.8
					c0.2,0.1,0.4,0.1,0.6,0.1c0.3,0,0.6-0.1,0.9-0.3c0.9-0.7,2-1.6,3-2.5c0.7-0.6,1.5-1.2,2.2-1.8c0.4,0.3,0.8,0.5,1.3,0.7
					c0.2,0.1,0.5,0.2,0.7,0.2c0.3,0,0.6-0.1,0.9-0.3l1-0.8l0.9,18c0,0.6,0.4,1.1,0.9,1.3c0.2,0.1,0.3,0.1,0.5,0.1
					c0.4,0,0.7-0.1,1-0.4l8.5-8.5C82.4,91.2,85,85,85,78.4v-7.9l3.3-2.6c10-7.8,16.1-19.5,16.8-32.2V35
					C105.1,34.2,104.7,33.3,104.1,32.6z M36.2,66.8l6.2-6.2c4.1-4.1,9.5-6.3,15.3-6.4l6.1,0.2L53,67.6L36.2,66.8z M58,85.2
					c-0.8,0.6-1.5,1.3-2.2,1.9c-1.4-0.8-2.6-1.7-3.7-2.8c-1.1-1.1-2-2.3-2.7-3.6l3.1-3.7c0.9,1.3,2,2.5,3.1,3.6l0,0l0,0l0,0
					c1.2,1.2,2.6,2.4,4,3.4C59,84.4,58.5,84.8,58,85.2z M82,78.6c0,5.8-2.3,11.2-6.4,15.3l-6.2,6.2l-0.9-16.8L82,72.9V78.6L82,78.6z
					 M102.1,35.7c-0.6,11.8-6.3,22.8-15.6,30.1L63.9,83.3c-1.9-1.1-3.6-2.4-5.2-3.9l7.6-7.6c0.6-0.6,0.6-1.5,0-2
					c-0.6-0.6-1.5-0.6-2,0l-7.6,7.6c-1.4-1.6-2.6-3.2-3.7-5l18.6-22.9c7.1-8.8,17.6-14.2,28.9-14.9l1.3-0.1c0.2,0,0.3,0.1,0.3,0.1
					c0.1,0.1,0.1,0.2,0.1,0.3L102.1,35.7z"/>
			</g>
		</g>
	</g>
</g>
</svg>
