<?xml version="1.0" encoding="utf-8"?>
<!-- Generator: Adobe Illustrator 21.1.0, SVG Export Plug-In . SVG Version: 6.00 Build 0)  -->
<svg version="1.1" id="Layer_1" xmlns="http://www.w3.org/2000/svg" xmlns:xlink="http://www.w3.org/1999/xlink" x="0px" y="0px"
	 viewBox="0 0 641.5 136.5" style="enable-background:new 0 0 641.5 136.5;" xml:space="preserve">
<style type="text/css">
	.st0{fill:#FFFFFF;}
</style>
<path class="st0" d="M167.4,98.8V38.4h21.7c7.8,0,13.7,1.4,17.7,4.3c4.1,2.9,6.1,7,6.1,12.4c0,3.1-0.7,5.8-2.2,8
	c-1.4,2.2-3.6,3.8-6.4,4.9c3.2,0.8,5.6,2.4,7.3,4.6c1.7,2.3,2.5,5,2.5,8.3c0,5.9-1.9,10.4-5.6,13.3c-3.7,3-9.3,4.5-16.7,4.5
	L167.4,98.8L167.4,98.8z M182,63.6h7.6c3.2,0,5.5-0.6,6.8-1.7c1.4-1.1,2-2.8,2-5c0-2.6-0.7-4.4-2.2-5.5s-3.8-1.7-7.1-1.7H182V63.6z
	 M182,73.1v14.5h9.5c2.6,0,4.6-0.6,6.1-1.8c1.4-1.2,2.1-2.9,2.1-5.1c0-5-2.5-7.6-7.5-7.6H182z"/>
<path class="st0" d="M246.9,98.8c-0.5-0.9-0.9-2.3-1.3-4c-2.6,3.2-6.2,4.9-10.8,4.9c-4.2,0-7.8-1.3-10.8-3.8c-3-2.6-4.4-5.8-4.4-9.6
	c0-4.9,1.8-8.5,5.4-11c3.6-2.5,8.8-3.7,15.7-3.7h4.3V69c0-4.1-1.8-6.2-5.4-6.2c-3.3,0-5,1.6-5,4.9h-14c0-4.3,1.8-7.9,5.5-10.6
	c3.7-2.7,8.4-4.1,14.1-4.1s10.3,1.4,13.6,4.2s5,6.6,5.1,11.5v19.9c0.1,4.1,0.7,7.3,1.9,9.5v0.7C260.8,98.8,246.9,98.8,246.9,98.8z
	 M238.1,89.7c1.7,0,3.2-0.4,4.3-1.1s2-1.6,2.5-2.5v-7.2h-4.1c-4.9,0-7.3,2.2-7.3,6.6c0,1.3,0.4,2.3,1.3,3.1
	C235.7,89.3,236.8,89.7,238.1,89.7z"/>
<path class="st0" d="M290.2,86.2c0-1.2-0.6-2.1-1.9-2.9s-3.6-1.5-7.1-2.2s-6.4-1.8-8.6-3.1c-2.3-1.3-4-2.8-5.2-4.6
	c-1.2-1.8-1.8-3.9-1.8-6.2c0-4.1,1.7-7.5,5.1-10.2s7.9-4,13.4-4c5.9,0,10.7,1.3,14.3,4c3.6,2.7,5.4,6.2,5.4,10.6h-14
	c0-3.6-1.9-5.4-5.7-5.4c-1.5,0-2.7,0.4-3.7,1.2s-1.5,1.8-1.5,3.1c0,1.2,0.6,2.3,1.8,3c1.2,0.8,3.2,1.4,5.8,1.9c2.7,0.5,5,1.1,7,1.8
	c6.8,2.3,10.1,6.5,10.1,12.5c0,4.1-1.8,7.4-5.5,10c-3.6,2.6-8.3,3.9-14.1,3.9c-3.8,0-7.3-0.7-10.3-2.1s-5.4-3.3-7.1-5.6
	c-1.7-2.4-2.5-4.9-2.5-7.5h13.1c0.1,2.1,0.7,3.6,2.1,4.5c1.3,1,3,1.4,5.1,1.4c1.9,0,3.3-0.4,4.3-1.2
	C289.8,88.5,290.2,87.4,290.2,86.2z"/>
<path class="st0" d="M310.2,42.3c0-2,0.7-3.6,2.2-4.9c1.4-1.3,3.3-1.9,5.6-1.9c2.3,0,4.2,0.6,5.6,1.9c1.4,1.3,2.2,2.9,2.2,4.9
	s-0.7,3.6-2.2,4.9c-1.4,1.3-3.3,1.9-5.6,1.9c-2.3,0-4.2-0.6-5.6-1.9C310.9,46,310.2,44.3,310.2,42.3z M325,98.8h-14V53.9h14V98.8z"
	/>
<path class="st0" d="M352.6,88.9c2,0,3.5-0.5,4.6-1.6s1.6-2.6,1.6-4.5h13.1c0,4.9-1.8,9-5.3,12.1c-3.5,3.2-8.1,4.7-13.6,4.7
	c-6.5,0-11.7-2-15.4-6.1c-3.8-4.1-5.6-9.8-5.6-17v-0.6c0-4.5,0.8-8.5,2.5-12s4.1-6.1,7.2-8c3.2-1.9,6.9-2.8,11.2-2.8
	c5.8,0,10.5,1.6,13.9,4.9c3.4,3.2,5.1,7.6,5.1,13.2h-13.1c0-2.3-0.6-4.1-1.7-5.4c-1.1-1.2-2.7-1.9-4.6-1.9c-3.6,0-5.7,2.3-6.4,6.9
	c-0.2,1.5-0.3,3.5-0.3,6.1c0,4.5,0.5,7.6,1.6,9.4S350.3,88.9,352.6,88.9z"/>
<path class="st0" d="M433.9,87.5h-20l-3.5,11.3h-15.6L417,38.4h13.7L453,98.8h-15.6L433.9,87.5z M417.4,76.3h13l-6.5-21L417.4,76.3z
	"/>
<path class="st0" d="M455.1,76c0-7.1,1.5-12.7,4.6-16.8s7.4-6.1,12.9-6.1c4,0,7.4,1.6,10.1,4.7V35.1h14v63.8h-12.6l-0.7-4.8
	c-2.9,3.8-6.5,5.6-11,5.6c-5.3,0-9.6-2-12.7-6.1C456.7,89.4,455.1,83.6,455.1,76z M469.1,76.9c0,8,2.3,12,7,12
	c3.1,0,5.3-1.3,6.6-3.9V67.9c-1.3-2.7-3.5-4-6.6-4c-4.3,0-6.7,3.5-7,10.5V76.9z"/>
<path class="st0" d="M517.9,53.9l0.5,5.3c3.2-4.1,7.5-6.1,12.8-6.1c5.7,0,9.5,2.3,11.5,6.8c3-4.5,7.4-6.8,13.2-6.8
	c9.1,0,13.8,5.5,14,16.5v29.2h-14V70.5c0-2.3-0.4-4-1.2-5c-0.8-1.1-2.2-1.6-4.2-1.6c-2.8,0-4.8,1.2-6.2,3.7v0.6v30.7h-14V70.6
	c0-2.4-0.4-4.1-1.1-5.1c-0.7-1.1-2.2-1.6-4.3-1.6c-2.7,0-4.7,1.2-6.1,3.7v31.3h-14v-45H517.9z"/>
<path class="st0" d="M577.8,42.3c0-2,0.7-3.6,2.2-4.9c1.4-1.3,3.3-1.9,5.6-1.9s4.2,0.6,5.6,1.9c1.4,1.3,2.2,2.9,2.2,4.9
	s-0.7,3.6-2.2,4.9c-1.4,1.3-3.3,1.9-5.6,1.9s-4.2-0.6-5.6-1.9C578.5,46,577.8,44.3,577.8,42.3z M592.6,98.8h-14V53.9h14V98.8z"/>
<path class="st0" d="M614.1,53.9l0.5,5.3c3.1-4.1,7.4-6.1,12.8-6.1c4.7,0,8.2,1.4,10.5,4.2s3.5,7,3.6,12.6v28.9h-14V70.5
	c0-2.3-0.5-3.9-1.4-5s-2.6-1.6-5-1.6c-2.7,0-4.8,1.1-6.1,3.2v31.7h-14V53.9H614.1z"/>
<g>
	<path class="st0" d="M69.4,100.1l6.2-6.2c4.1-4.1,6.4-9.5,6.4-15.3v-5.7L68.5,83.3L69.4,100.1z"/>
	<path class="st0" d="M84.4,49.5c-0.9,0-1.7,0.4-2.3,1c-1.3,1.3-1.3,3.3,0,4.6c1.3,1.3,3.3,1.3,4.6,0c1.3-1.3,1.3-3.4,0-4.6
		C86.1,49.8,85.3,49.5,84.4,49.5z"/>
	<path class="st0" d="M63.8,54.4l-6.1-0.2c-5.8,0.1-11.2,2.3-15.3,6.4l-6.2,6.2L53,67.6L63.8,54.4z"/>
	<path class="st0" d="M52.5,77l-3.1,3.7c0.7,1.3,1.6,2.5,2.7,3.6c1.1,1.1,2.3,2,3.7,2.8c0.7-0.6,1.4-1.3,2.2-1.9
		c0.5-0.4,1-0.8,1.6-1.2c-1.4-1-2.8-2.2-4-3.4C54.5,79.5,53.4,78.3,52.5,77z"/>
	<path class="st0" d="M101.8,34.5l-1.3,0.1c-11.3,0.7-21.8,6.1-28.9,14.9L53,72.4c1.1,1.8,2.3,3.4,3.7,5l7.6-7.6
		c0.5-0.6,1.4-0.6,2,0c0.6,0.5,0.6,1.4,0,2l-7.6,7.6c1.6,1.5,3.3,2.8,5.2,3.9l22.6-17.5c9.3-7.3,15-18.3,15.6-30.1l0.1-0.8
		c0-0.1,0-0.2-0.1-0.3C102.1,34.6,102,34.5,101.8,34.5z M69.8,68.1c-0.8,0-1.4-0.6-1.4-1.4s0.6-1.4,1.4-1.4s1.4,0.6,1.4,1.4
		S70.6,68.1,69.8,68.1z M88.7,57.1c-1.2,1.2-2.7,1.8-4.3,1.8c-1.5,0-3.1-0.6-4.3-1.8c-2.4-2.4-2.4-6.3,0-8.7
		c1.1-1.2,2.7-1.8,4.3-1.8c1.6,0,3.1,0.6,4.3,1.8C91.1,50.8,91.1,54.7,88.7,57.1z"/>
	<path class="st0" d="M108.4,0H28.1C12.6,0,0,12.6,0,28.1v80.3c0,15.5,12.6,28.1,28.1,28.1h80.3c15.5,0,28.1-12.6,28.1-28.1V28.1
		C136.5,12.6,123.9,0,108.4,0z M32.9,104.8c-0.8,0-1.4-0.6-1.4-1.4c0-0.8,0.6-1.4,1.4-1.4s1.4,0.6,1.4,1.4
		C34.3,104.2,33.7,104.8,32.9,104.8z M50.1,92.5L48.4,96c-1.2,2.4-3.6,4-6.3,4.2l-2,0.1c-0.1,0-0.2,0-0.3,0c-0.9,0-1.9-0.4-2.6-1.1
		c-0.8-0.8-1.2-1.8-1.1-2.9l0.1-2c0.2-2.7,1.8-5.1,4.2-6.3l3.6-1.6c0.7-0.4,1.5-0.1,1.9,0.6c0.4,0.7,0.1,1.5-0.6,1.9l-3.5,1.7
		c-1.5,0.7-2.5,2.2-2.6,3.9l-0.1,2c-0.1,0.4,0.1,0.6,0.2,0.7c0.1,0.1,0.4,0.2,0.7,0.2l2-0.1c1.6-0.1,3.2-1.1,3.9-2.6l1.7-3.5
		c0.3-0.7,1.2-1,1.9-0.6C50.2,91,50.5,91.8,50.1,92.5z M105.1,35.7c-0.7,12.7-6.8,24.4-16.8,32.2L85,70.5v7.9
		c0,6.6-2.6,12.8-7.2,17.4l-8.5,8.5c-0.3,0.3-0.6,0.4-1,0.4c-0.2,0-0.3,0-0.5-0.1c-0.5-0.2-0.9-0.7-0.9-1.3l-0.9-18l-1,0.8
		c-0.3,0.2-0.6,0.3-0.9,0.3c-0.2,0-0.5-0.1-0.7-0.2c-0.5-0.2-0.9-0.4-1.3-0.7c-0.7,0.6-1.5,1.2-2.2,1.8c-1,0.9-2.1,1.8-3,2.5
		c-0.3,0.2-0.6,0.3-0.9,0.3c-0.2,0-0.4,0-0.6-0.1c-2.1-1-3.9-2.2-5.4-3.8c-1.5-1.5-2.8-3.2-3.7-5.2c-0.2-0.5-0.2-1.1,0.2-1.5
		l4.3-5.1c-0.3-0.5-0.6-1-0.9-1.5c-0.3-0.5-0.3-1.1,0.1-1.6l0.9-1l-18-0.9c-0.6,0-1.1-0.4-1.3-0.9c-0.2-0.5-0.1-1.1,0.3-1.5l8.4-8.4
		c4.7-4.6,10.8-7.2,17.4-7.2l8.3,0.2l3.3-3.9c7.6-9.4,18.8-15.2,30.9-16l1.3-0.1c1,0,1.9,0.3,2.6,1c0.6,0.7,1,1.6,1,2.4V35.7z"/>
</g>
</svg>
